<svg width="22" height="22" viewBox="0 0 22 22" fill="none" xmlns="http://www.w3.org/2000/svg">
<path fill-rule="evenodd" clip-rule="evenodd" d="M4.09243 14.1757C4.95197 13.3162 6.11776 12.8333 7.33333 12.8333H14.6667C15.8822 12.8333 17.048 13.3162 17.9076 14.1757C18.7671 15.0353 19.25 16.2011 19.25 17.4166V19.25C19.25 19.7562 18.8396 20.1666 18.3333 20.1666C17.8271 20.1666 17.4167 19.7562 17.4167 19.25V17.4166C17.4167 16.6873 17.1269 15.9878 16.6112 15.4721C16.0955 14.9564 15.396 14.6666 14.6667 14.6666H7.33333C6.60399 14.6666 5.90452 14.9564 5.38879 15.4721C4.87306 15.9878 4.58333 16.6873 4.58333 17.4166V19.25C4.58333 19.7562 4.17293 20.1666 3.66667 20.1666C3.16041 20.1666 2.75 19.7562 2.75 19.25V17.4166C2.75 16.2011 3.23289 15.0353 4.09243 14.1757Z" fill="#161719"/>
<path fill-rule="evenodd" clip-rule="evenodd" d="M2.75 19.14C2.75 18.5325 3.24249 18.04 3.85 18.04H18.15C18.7575 18.04 19.25 18.5325 19.25 19.14C19.25 19.7475 18.7575 20.24 18.15 20.24H3.85C3.24249 20.24 2.75 19.7475 2.75 19.14Z" fill="#161719"/>
<path fill-rule="evenodd" clip-rule="evenodd" d="M11.0001 3.66665C9.4813 3.66665 8.25008 4.89786 8.25008 6.41665C8.25008 7.93543 9.4813 9.16665 11.0001 9.16665C12.5189 9.16665 13.7501 7.93543 13.7501 6.41665C13.7501 4.89786 12.5189 3.66665 11.0001 3.66665ZM6.41675 6.41665C6.41675 3.88534 8.46878 1.83331 11.0001 1.83331C13.5314 1.83331 15.5834 3.88534 15.5834 6.41665C15.5834 8.94795 13.5314 11 11.0001 11C8.46878 11 6.41675 8.94795 6.41675 6.41665Z" fill="#161719"/>
</svg>
