<svg width="20" height="20" viewBox="0 0 20 20" fill="none" xmlns="http://www.w3.org/2000/svg">
<path fill-rule="evenodd" clip-rule="evenodd" d="M4.16675 10C3.70651 10 3.33341 10.3731 3.33341 10.8334V16.6667C3.33341 17.1269 3.70651 17.5 4.16675 17.5H15.8334C16.2937 17.5 16.6667 17.1269 16.6667 16.6667V10.8334C16.6667 10.3731 16.2937 10 15.8334 10H4.16675ZM1.66675 10.8334C1.66675 9.45266 2.78604 8.33337 4.16675 8.33337H15.8334C17.2141 8.33337 18.3334 9.45266 18.3334 10.8334V16.6667C18.3334 18.0474 17.2141 19.1667 15.8334 19.1667H4.16675C2.78604 19.1667 1.66675 18.0474 1.66675 16.6667V10.8334Z" fill="#6360FF"/>
<path fill-rule="evenodd" clip-rule="evenodd" d="M10 2.50004C9.11594 2.50004 8.2681 2.85123 7.64298 3.47635C7.01786 4.10147 6.66667 4.94932 6.66667 5.83337V9.16671C6.66667 9.62695 6.29357 10 5.83333 10C5.3731 10 5 9.62695 5 9.16671V5.83337C5 4.50729 5.52678 3.23552 6.46447 2.29784C7.40215 1.36016 8.67392 0.833374 10 0.833374C11.3261 0.833374 12.5979 1.36016 13.5355 2.29784C14.4732 3.23552 15 4.50729 15 5.83337V9.16671C15 9.62695 14.6269 10 14.1667 10C13.7064 10 13.3333 9.62695 13.3333 9.16671V5.83337C13.3333 4.94932 12.9821 4.10147 12.357 3.47635C11.7319 2.85123 10.8841 2.50004 10 2.50004Z" fill="#6360FF"/>
</svg>
