<svg width="20" height="20" viewBox="0 0 20 20" fill="none" xmlns="http://www.w3.org/2000/svg">
<g clip-path="url(#clip0_0_164)">
<path fill-rule="evenodd" clip-rule="evenodd" d="M9.99992 1.66667C7.2385 1.66667 4.99992 3.90524 4.99992 6.66667C4.99992 9.42809 7.2385 11.6667 9.99992 11.6667C12.7613 11.6667 14.9999 9.42809 14.9999 6.66667C14.9999 3.90524 12.7613 1.66667 9.99992 1.66667ZM3.33325 6.66667C3.33325 2.98477 6.31802 0 9.99992 0C13.6818 0 16.6666 2.98477 16.6666 6.66667C16.6666 10.3486 13.6818 13.3333 9.99992 13.3333C6.31802 13.3333 3.33325 10.3486 3.33325 6.66667Z" fill="#161719"/>
<path fill-rule="evenodd" clip-rule="evenodd" d="M13.0488 10.7406C13.505 10.6801 13.9239 11.0009 13.9844 11.4571L14.9928 19.0571C15.0349 19.3743 14.8916 19.6876 14.6242 19.8632C14.3567 20.0389 14.0123 20.0459 13.7379 19.8813L10 17.6385L6.2621 19.8813C5.98771 20.0459 5.64327 20.0389 5.37582 19.8632C5.10837 19.6875 4.96514 19.3742 5.00727 19.057L6.01561 11.4653C6.07621 11.0091 6.49518 10.6884 6.95141 10.749C7.40764 10.8096 7.72836 11.2285 7.66777 11.6848L6.88706 17.5627L9.57127 15.9521C9.83518 15.7938 10.1649 15.7938 10.4288 15.9521L13.1133 17.5628L12.3323 11.6763C12.2717 11.2201 12.5925 10.8011 13.0488 10.7406Z" fill="#161719"/>
</g>
<defs>
<clipPath id="clip0_0_164">
<rect width="20" height="20" fill="white"/>
</clipPath>
</defs>
</svg>
