<svg width="22" height="22" viewBox="0 0 22 22" fill="none" xmlns="http://www.w3.org/2000/svg">
<path fill-rule="evenodd" clip-rule="evenodd" d="M10.0833 3.66665C6.53942 3.66665 3.66659 6.53949 3.66659 10.0833C3.66659 13.6271 6.53942 16.5 10.0833 16.5C13.6271 16.5 16.4999 13.6271 16.4999 10.0833C16.4999 6.53949 13.6271 3.66665 10.0833 3.66665ZM1.83325 10.0833C1.83325 5.52696 5.5269 1.83331 10.0833 1.83331C14.6396 1.83331 18.3333 5.52696 18.3333 10.0833C18.3333 14.6397 14.6396 18.3333 10.0833 18.3333C5.5269 18.3333 1.83325 14.6397 1.83325 10.0833Z" fill="#FF8181"/>
<path fill-rule="evenodd" clip-rule="evenodd" d="M14.6142 14.6143C14.9722 14.2563 15.5526 14.2563 15.9106 14.6143L19.898 18.6018C20.256 18.9598 20.256 19.5402 19.898 19.8982C19.5401 20.2562 18.9597 20.2562 18.6017 19.8982L14.6142 15.9107C14.2562 15.5527 14.2562 14.9723 14.6142 14.6143Z" fill="#FF8181"/>
</svg>
