<svg width="13" height="13" viewBox="0 0 13 13" fill="none" xmlns="http://www.w3.org/2000/svg">
<path d="M6.05157 1.99169C6.23498 1.62011 6.76485 1.62011 6.94827 1.99169L8.05745 4.23875C8.13022 4.38618 8.27081 4.48841 8.43349 4.51218L10.9147 4.87485C11.3247 4.93477 11.488 5.43869 11.1912 5.72777L9.39665 7.47571C9.27871 7.59058 9.22488 7.75615 9.25271 7.91841L9.67613 10.3872C9.74619 10.7957 9.31742 11.1072 8.9506 10.9142L6.73264 9.74784C6.58695 9.67123 6.41288 9.67123 6.26719 9.74784L4.04923 10.9142C3.68242 11.1072 3.25365 10.7957 3.3237 10.3872L3.74713 7.91841C3.77496 7.75615 3.72113 7.59058 3.60319 7.47571L1.80859 5.72777C1.51179 5.43869 1.67519 4.93477 2.08514 4.87485L4.56635 4.51218C4.72903 4.48841 4.86962 4.38618 4.94239 4.23875L6.05157 1.99169Z" fill="#FFC960"/>
</svg>
