<svg width="242" height="32" viewBox="0 0 242 32" fill="none" xmlns="http://www.w3.org/2000/svg">
<path d="M137 15.5002L111 30.0002L111 1.00018L137 15.5002Z" fill="#FCFCFF"/>
<path d="M224.38 22.8288V16.1808L223 16.5048V15.3288L225.028 14.4288H225.976V22.8288H224.38Z" fill="#FCFCFF"/>
<path d="M231.049 22.9728C230.273 22.9728 229.609 22.7928 229.057 22.4328C228.505 22.0648 228.077 21.5568 227.773 20.9088C227.477 20.2528 227.329 19.4928 227.329 18.6288C227.329 17.7728 227.477 17.0168 227.773 16.3608C228.077 15.7048 228.505 15.1968 229.057 14.8368C229.609 14.4688 230.273 14.2848 231.049 14.2848C231.825 14.2848 232.489 14.4688 233.041 14.8368C233.593 15.1968 234.017 15.7048 234.313 16.3608C234.617 17.0168 234.769 17.7728 234.769 18.6288C234.769 19.4928 234.617 20.2528 234.313 20.9088C234.017 21.5568 233.593 22.0648 233.041 22.4328C232.489 22.7928 231.825 22.9728 231.049 22.9728ZM231.049 21.5928C231.681 21.5928 232.197 21.3288 232.597 20.8008C232.997 20.2728 233.197 19.5488 233.197 18.6288C233.197 17.7088 232.997 16.9848 232.597 16.4568C232.197 15.9288 231.681 15.6648 231.049 15.6648C230.409 15.6648 229.889 15.9288 229.489 16.4568C229.097 16.9848 228.901 17.7088 228.901 18.6288C228.901 19.5488 229.097 20.2728 229.489 20.8008C229.889 21.3288 230.409 21.5928 231.049 21.5928Z" fill="#FCFCFF"/>
<path d="M232.5 5.93849C231.244 5.51458 229.899 5.28479 228.5 5.28479C221.596 5.28479 216 10.8812 216 17.7848C216 24.6883 221.596 30.2848 228.5 30.2848C235.404 30.2848 241 24.6883 241 17.7848C241 15.8112 240.543 13.9445 239.728 12.2848" stroke="#FCFCFF" stroke-width="2" stroke-linecap="round" stroke-linejoin="round"/>
<path d="M231.493 1.0002L234.829 6.77787L229.051 10.1136" stroke="#FCFCFF" stroke-width="2" stroke-linecap="round" stroke-linejoin="round"/>
<path d="M9.38 22.8288V16.1808L8 16.5048V15.3288L10.028 14.4288H10.976V22.8288H9.38Z" fill="#FCFCFF"/>
<path d="M16.0487 22.9728C15.2727 22.9728 14.6087 22.7928 14.0567 22.4328C13.5047 22.0648 13.0767 21.5568 12.7727 20.9088C12.4767 20.2528 12.3287 19.4928 12.3287 18.6288C12.3287 17.7728 12.4767 17.0168 12.7727 16.3608C13.0767 15.7048 13.5047 15.1968 14.0567 14.8368C14.6087 14.4688 15.2727 14.2848 16.0487 14.2848C16.8247 14.2848 17.4887 14.4688 18.0407 14.8368C18.5927 15.1968 19.0167 15.7048 19.3127 16.3608C19.6167 17.0168 19.7687 17.7728 19.7687 18.6288C19.7687 19.4928 19.6167 20.2528 19.3127 20.9088C19.0167 21.5568 18.5927 22.0648 18.0407 22.4328C17.4887 22.7928 16.8247 22.9728 16.0487 22.9728ZM16.0487 21.5928C16.6807 21.5928 17.1967 21.3288 17.5967 20.8008C17.9967 20.2728 18.1967 19.5488 18.1967 18.6288C18.1967 17.7088 17.9967 16.9848 17.5967 16.4568C17.1967 15.9288 16.6807 15.6648 16.0487 15.6648C15.4087 15.6648 14.8887 15.9288 14.4887 16.4568C14.0967 16.9848 13.9007 17.7088 13.9007 18.6288C13.9007 19.5488 14.0967 20.2728 14.4887 20.8008C14.8887 21.3288 15.4087 21.5928 16.0487 21.5928Z" fill="#FCFCFF"/>
<path d="M9.5 5.93849C10.7559 5.51458 12.1011 5.28479 13.5 5.28479C20.4036 5.28479 26 10.8812 26 17.7848C26 24.6883 20.4036 30.2848 13.5 30.2848C6.59644 30.2848 1 24.6883 1 17.7848C1 15.8112 1.45737 13.9445 2.2719 12.2848" stroke="#FCFCFF" stroke-width="2" stroke-linecap="round" stroke-linejoin="round"/>
<path d="M10.507 1.0002L7.17125 6.77787L12.9489 10.1136" stroke="#FCFCFF" stroke-width="2" stroke-linecap="round" stroke-linejoin="round"/>
</svg>
