<svg width="22" height="22" viewBox="0 0 22 22" fill="none" xmlns="http://www.w3.org/2000/svg">
<path fill-rule="evenodd" clip-rule="evenodd" d="M11.0001 2.75002C6.44373 2.75002 2.75008 6.44367 2.75008 11C2.75008 15.5564 6.44373 19.25 11.0001 19.25C15.5564 19.25 19.2501 15.5564 19.2501 11C19.2501 6.44367 15.5564 2.75002 11.0001 2.75002ZM0.916748 11C0.916748 5.43115 5.43121 0.916687 11.0001 0.916687C16.569 0.916687 21.0834 5.43115 21.0834 11C21.0834 16.5689 16.569 21.0834 11.0001 21.0834C5.43121 21.0834 0.916748 16.5689 0.916748 11Z" fill="#161719"/>
<path fill-rule="evenodd" clip-rule="evenodd" d="M8.73413 6.52515C9.03219 6.36564 9.39386 6.38312 9.67514 6.57064L15.1751 10.2373C15.4302 10.4073 15.5833 10.6935 15.5833 11C15.5833 11.3065 15.4302 11.5927 15.1751 11.7627L9.67514 15.4294C9.39386 15.6169 9.03219 15.6344 8.73413 15.4749C8.43607 15.3154 8.25 15.0048 8.25 14.6667V7.33336C8.25 6.99529 8.43607 6.68467 8.73413 6.52515ZM10.0833 9.04616V12.9539L13.0141 11L10.0833 9.04616Z" fill="#161719"/>
</svg>
