<svg width="20" height="20" viewBox="0 0 20 20" fill="none" xmlns="http://www.w3.org/2000/svg">
<path fill-rule="evenodd" clip-rule="evenodd" d="M5.87511 2.54192C6.96907 1.44796 8.45281 0.833374 9.9999 0.833374C11.547 0.833374 13.0307 1.44796 14.1247 2.54192C15.2187 3.63588 15.8332 5.11961 15.8332 6.66671C15.8332 9.46059 16.4308 11.1956 16.9815 12.2052C17.258 12.7121 17.5272 13.0446 17.7142 13.242C17.808 13.341 17.8816 13.4066 17.926 13.4435C17.9482 13.462 17.963 13.4733 17.9694 13.4781C17.9704 13.4789 17.9712 13.4794 17.9718 13.4799C18.2706 13.6851 18.4028 14.0605 18.2975 14.4082C18.1911 14.7597 17.8671 15 17.4999 15H2.4999C2.13268 15 1.80874 14.7597 1.70233 14.4082C1.59704 14.0605 1.72924 13.6851 2.02798 13.4799C2.02856 13.4795 2.02936 13.4789 2.03036 13.4781C2.03677 13.4733 2.05165 13.462 2.07384 13.4435C2.11818 13.4066 2.19184 13.341 2.28557 13.242C2.47259 13.0446 2.74183 12.7121 3.01832 12.2052C3.56901 11.1956 4.16657 9.46059 4.16657 6.66671C4.16657 5.11961 4.78115 3.63588 5.87511 2.54192ZM2.0364 13.4742C2.03647 13.4741 2.03653 13.4741 2.0366 13.474C2.03659 13.474 2.03659 13.474 2.03659 13.474L2.0364 13.4742ZM4.291 13.3334H15.7088C15.6454 13.2295 15.5817 13.1195 15.5183 13.0033C14.819 11.7212 14.1666 9.70616 14.1666 6.66671C14.1666 5.56164 13.7276 4.50183 12.9462 3.72043C12.1648 2.93903 11.105 2.50004 9.9999 2.50004C8.89483 2.50004 7.83502 2.93903 7.05362 3.72043C6.27222 4.50183 5.83323 5.56164 5.83323 6.66671C5.83323 9.70616 5.18079 11.7212 4.48148 13.0033C4.41807 13.1195 4.35441 13.2295 4.291 13.3334Z" fill="#FCFCFF"/>
<path fill-rule="evenodd" clip-rule="evenodd" d="M8.14018 16.7791C8.53829 16.5482 9.04822 16.6837 9.27916 17.0818C9.35241 17.2081 9.45756 17.3129 9.58406 17.3858C9.71057 17.4587 9.854 17.497 9.99999 17.497C10.146 17.497 10.2894 17.4587 10.4159 17.3858C10.5424 17.3129 10.6476 17.2081 10.7208 17.0818C10.9518 16.6837 11.4617 16.5482 11.8598 16.7791C12.2579 17.0101 12.3934 17.52 12.1625 17.9181C11.9427 18.297 11.6273 18.6114 11.2478 18.83C10.8683 19.0486 10.438 19.1637 9.99999 19.1637C9.56202 19.1637 9.13173 19.0486 8.75221 18.83C8.37269 18.6114 8.05725 18.297 7.83749 17.9181C7.60656 17.52 7.74208 17.0101 8.14018 16.7791Z" fill="#FCFCFF"/>
</svg>
